<svg width="24" height="24" viewBox="0 0 24 24" fill="none" xmlns="http://www.w3.org/2000/svg">
    <path d="M11.979 4.227H12.02c1.385.008 2.428.297 3.097.866.239-.803.23-1.444-.025-1.913a.87.87 0 0 1-.025-.058 2.617 2.617 0 0 0-.113-.16s-.004-.003-.004-.008l-.008-.008-.126-.138C14.273 2.276 13.327 2.004 12 2c-1.327.004-2.273.276-2.817.816l-.126.138-.008.009c0 .004-.005.004-.005.008a.903.903 0 0 0-.113.16.13.13 0 0 1-.025.054c-.255.468-.26 1.105-.025 1.913.674-.574 1.712-.863 3.098-.871zM12.402 10.829c.573.711 1.21 1.457 1.909 2.24 2.055-2.738 2.612-4.19 2.645-4.953 0-.025.005-.054.009-.083.004-.021.004-.046.004-.072 0-.012 0-.02.004-.033 0-.017.16-1.444-1.072-3.546-.092.917-.54 2.043-1.352 3.395-.552.917-1.268 1.938-2.147 3.052z" fill="#215585"/>
    <path d="M14.126 13.804c-2.093-2.315-3.667-4.34-4.675-6.024-.813-1.352-1.26-2.478-1.353-3.394-1.226 2.101-1.071 3.528-1.071 3.541 0 .013.004.025.004.034 0 .02.004.046.004.07.004.03.004.06.009.084.05 1.08 1.134 3.525 6.015 9.03a131.518 131.518 0 0 0 5.492 5.789l.247-1.967a.32.32 0 0 1 .31-.277L21 20.682c-1.23-1.13-4.148-3.864-6.874-6.878zM3 20.683l1.892.008c.16 0 .289.117.31.276l.247 1.968a133.45 133.45 0 0 0 5.492-5.785c.222-.252.44-.499.645-.737a61.673 61.673 0 0 1-1.934-2.361C6.989 16.965 4.197 19.586 3 20.682z" fill="#215585"/>
</svg>
