<svg width="48" height="48" viewBox="0 0 48 48" fill="none" xmlns="http://www.w3.org/2000/svg">
    <path fill-rule="evenodd" clip-rule="evenodd" d="M44 20c.64-6.56-8.56-12-19.98-12S3.4 13.44 4.04 20H44zM10.7 27c1.1 0 1.56.28 2.3.72.9.54 2.14 1.28 4.36 1.28s3.46-.74 4.36-1.28c.74-.46 1.18-.72 2.3-.72 1.1 0 1.56.28 2.3.72.9.54 2.14 1.28 4.36 1.28s3.46-.74 4.36-1.28c.74-.46 1.18-.72 2.3-.72 1.1 0 1.56.28 2.3.72.9.54 2.14 1.26 4.34 1.28v-3.96s-1.58-.32-2.32-.76c-.9-.54-2.14-1.28-4.36-1.28s-3.46.74-4.36 1.28c-.74.46-1.2.72-2.3.72-1.1 0-1.56-.28-2.3-.72-.9-.54-2.14-1.28-4.36-1.28s-3.46.74-4.36 1.28c-.74.46-1.18.72-2.3.72-1.1 0-1.56-.28-2.3-.72-.9-.54-2.14-1.28-4.36-1.28s-3.46.74-4.36 1.28c-.74.46-1.18.72-2.3.72v4c2.22 0 3.46-.74 4.42-1.28.74-.46 1.18-.72 2.28-.72zM4 32v4c0 2.2 1.8 4 4 4h32c2.2 0 4-1.8 4-4v-4H4z" fill="#215585"/>
</svg>
