<svg width="48" height="48" viewBox="0 0 48 48" fill="none" xmlns="http://www.w3.org/2000/svg">
    <path d="m12.574 24.99 16.035 8.417 2.68-1.223-15.141-15.188-3.574 7.994zM10.27 30.066l11.896 6.207 4.655-2.116-14.906-7.759-1.645 3.668zM6.085 39.427c-.47 1.693 1.082 3.198 2.775 2.775l5.125-2.258-6.536-3.432-1.364 2.915zM8.014 35.097l7.711 4.044 4.656-2.069L9.659 31.43l-1.645 3.667zM23.579 20.754a.654.654 0 0 0 .893 0l1.505-1.552a.596.596 0 0 0 0-.846.596.596 0 0 0-.847 0l-1.551 1.552a.596.596 0 0 0 0 .846zM26.633 16.76a.596.596 0 0 0 0 .846.596.596 0 0 0 .847 0l.94-.94c3.48-3.574.658-7.1.658-7.148a.604.604 0 0 0-.846-.094.604.604 0 0 0-.094.847c.094.093 2.116 2.727-.564 5.501l-.94.988zM29.315 22.215l-1.787 1.693a.596.596 0 0 0 0 .847.596.596 0 0 0 .846 0l1.787-1.693a.596.596 0 0 0 0-.847c-.188-.235-.564-.235-.846 0zM30.82 21.65a.596.596 0 0 0 .846 0l.893-.847c.141-.14.282-.235.423-.376a.604.604 0 0 0 .095-.846.604.604 0 0 0-.847-.094c-.188.14-.33.282-.517.423l-.894.846c-.235.282-.282.659 0 .894-.047 0-.047 0 0 0zM38.907 20.146c.235-.283.188-.659-.094-.847-.094-.047-1.787-1.41-4.044-1.034a.63.63 0 0 0-.517.705c0 .141.094.235.188.33.141.14.33.187.517.187 1.74-.282 3.057.753 3.057.8.282.188.705.14.893-.141zM20.333 17.464c.33.14.659 0 .8-.33l.987-2.35c.141-.33 0-.659-.33-.8-.328-.14-.657 0-.799.33l-.987 2.35c-.094.236-.047.518.141.659a.65.65 0 0 0 .188.14zM20.287 7.167c.094.047 2.445 1.458 1.787 4.326 0 .047-.047.141-.047.188a.713.713 0 0 0 .14.612c.095.094.189.14.283.14a.604.604 0 0 0 .752-.422c0-.095.047-.142.047-.236.706-3.056-1.27-5.031-2.398-5.69-.282-.187-.658-.046-.846.236a.646.646 0 0 0 .282.846zM36.133 25.837c-.14-.33-.47-.47-.799-.33l-4.138 1.74c-.329.142-.47.47-.329.8a.648.648 0 0 0 .141.188.582.582 0 0 0 .658.141l4.138-1.693c.33-.14.47-.517.33-.846zM42.198 27.528c-.047-.094-1.035-1.834-3.15-2.398a.604.604 0 0 0-.753.423c-.047.235 0 .423.141.564.094.094.188.141.282.141 1.599.423 2.398 1.787 2.398 1.787.188.282.518.376.847.235.329-.047.423-.423.235-.752zM26.822 8.293a.658.658 0 1 0 0-1.316.658.658 0 0 0 0 1.316zM18.547 13.563a.658.658 0 1 0 0-1.317.658.658 0 0 0 0 1.317zM40.977 22.496a.658.658 0 1 0 0-1.316.658.658 0 0 0 0 1.316zM35.522 30.352a.658.658 0 1 0 0-1.317.658.658 0 0 0 0 1.317zM33.17 12.903a.658.658 0 1 0 0-1.317.658.658 0 0 0 0 1.317z" fill="#215585"/>
</svg>
