<svg width="48" height="48" viewBox="0 0 48 48" fill="none" xmlns="http://www.w3.org/2000/svg">
    <path d="M24 4C12.96 4 4 12.96 4 24s8.96 20 20 20 20-8.96 20-20S35.04 4 24 4zm1.76 31.52V38h-3.5v-2.58c-1.48-.36-4.78-1.54-6.04-5.92l3.3-1.34c.12.44 1.16 4.18 4.8 4.18 1.86 0 3.96-.96 3.96-3.22 0-1.92-1.4-2.92-4.56-4.06-2.2-.78-6.7-2.06-6.7-6.62 0-.2.02-4.8 5.24-5.92V10h3.5v2.48c3.68.64 5.02 3.58 5.32 4.46l-3.16 1.34c-.22-.7-1.18-2.68-3.8-2.68-1.4 0-3.62.74-3.62 2.78 0 1.9 1.72 2.62 5.28 3.8 4.8 1.66 6.02 4.1 6.02 6.9 0 5.26-5 6.26-6.04 6.44z" fill="#215585"/>
</svg>
