<svg width="48" height="48" viewBox="0 0 48 48" fill="none" xmlns="http://www.w3.org/2000/svg">
    <path d="M45.121 23.558a11.448 11.448 0 0 0-9.542-8.962 11.384 11.384 0 0 0-2.612-.063l3.077-4.701L33.246 8l-5.81 1.214-1.829 2.798 4.695 3.072c-5.393 1.817-8.71 7.434-7.519 13.14a11.329 11.329 0 0 0 1.318 3.408 8.025 8.025 0 0 0 1.68-3.352 8.77 8.77 0 0 1-.162-.648c-.96-4.594 1.997-9.113 6.593-10.073a8.47 8.47 0 0 1 2.954-.095 8.54 8.54 0 0 1 7.12 6.688c.96 4.594-1.998 9.113-6.593 10.073a8.484 8.484 0 0 1-2.954.096 8.444 8.444 0 0 1-1-.213 15.832 15.832 0 0 1-1.713 2.489c.735.272 1.503.476 2.3.59 1.316.19 2.648.147 3.959-.126 6.158-1.288 10.121-7.344 8.836-13.503z" fill="#215585"/>
    <path d="M30.586 32.093c.251-.565.468-1.15.645-1.753l.023-.086a12.998 12.998 0 0 0 .239-.96 13.815 13.815 0 0 0-1.325-9.361 7.095 7.095 0 0 0-2.767 3.322 9.967 9.967 0 0 1 .427 4.612c-.042.283-.101.56-.164.834-.02.09-.04.181-.063.27a9.988 9.988 0 0 1-3.414 5.26c-.505.408-1.05.767-1.625 1.071l-.069.039c-.145.074-.292.146-.44.214a9.081 9.081 0 0 1-.88.355c-.197.068-.394.132-.594.188a10.005 10.005 0 0 1-1.008.227c-.076.014-.152.023-.227.034-.264.04-.53.07-.798.088l-.147.007c-.294.014-.59.02-.89.007-.024 0-.047-.003-.072-.004a10.11 10.11 0 0 1-.97-.09c-5.477-.79-9.29-5.887-8.5-11.363.788-5.475 5.885-9.287 11.362-8.499a9.966 9.966 0 0 1 4.31 1.717 12.877 12.877 0 0 1 2.784-2.75 13.803 13.803 0 0 0-6.544-2.79C12.295 11.59 5.236 16.87 4.143 24.453 3.05 32.036 8.332 39.096 15.915 40.19c.25.036.503.064.751.087.084.007.164.01.247.016.168.012.335.025.503.03.096.003.189.003.282.005.156.002.31.003.465 0a16.212 16.212 0 0 0 1.026-.06 12.669 12.669 0 0 0 1.196-.164c.08-.014.162-.028.242-.045.173-.034.343-.074.514-.114.061-.015.125-.029.187-.045.215-.055.429-.115.64-.18l.047-.014a13.855 13.855 0 0 0 2.042-.822c.036-.017.07-.037.105-.054.181-.091.36-.186.536-.285l.12-.07a13.437 13.437 0 0 0 1.218-.789 13.682 13.682 0 0 0 .57-.435 13.886 13.886 0 0 0 3.98-5.157z" fill="#215585"/>
</svg>
