<svg width="48" height="48" viewBox="0 0 48 48" fill="none" xmlns="http://www.w3.org/2000/svg">
    <path d="m42.447 35.693-6.572-8.255a2.543 2.543 0 0 0-2.043-1.002H27.82l-1.402-3.245h5.61c1.041 0 2.003-.722 2.163-1.724.2-1.322-.801-2.444-2.043-2.444h-6.011s-2.004-1.923-2.965-2.765c-1.403-1.282-2.685-1.683-4.168-1.202-1.122.36-2.043 1.122-2.524 2.164a4.173 4.173 0 0 0-.08 3.326l4.007 9.537a2.639 2.639 0 0 0 2.444 1.603h9.136c.36 0 .722.16.922.44l5.57 6.933c.52.64 1.282 1.001 2.043 1.001a2.45 2.45 0 0 0 1.603-.56c1.162-.842 1.282-2.685.32-3.807z" fill="#215585"/>
    <path d="M31.427 35.087c-.32-.36-.76-.6-1.282-.6h-7.653a4.832 4.832 0 0 1-4.488-3.006l-6.091-14.706a3.59 3.59 0 0 0-4.328-2.044 3.68 3.68 0 0 0-2.244 1.924c-.44.921-.44 2.003-.08 2.925l8.856 21.318c.56 1.322 1.803 2.163 3.246 2.163h17.11c.641 0 1.202-.36 1.483-.961.28-.561.2-1.243-.241-1.764l-4.288-5.249zM20.77 12.06a4.367 4.367 0 1 0-7.636-4.242 4.367 4.367 0 0 0 7.637 4.242zM25.977 12.247h2.364v2.364c0 .28.2.48.481.48h3.045c.28 0 .481-.2.481-.48v-2.364h2.364c.28 0 .481-.2.481-.481V8.72c0-.28-.2-.48-.48-.48h-2.365V5.875c0-.24-.2-.48-.48-.48h-3.046c-.28 0-.48.2-.48.48V8.24h-2.365c-.28 0-.48.2-.48.48v3.046c0 .28.24.48.48.48z" fill="#215585"/>
</svg>
