<svg width="48" height="48" viewBox="0 0 48 48" fill="none" xmlns="http://www.w3.org/2000/svg">
    <path d="M26 17.14a2.86 2.86 0 1 0-.001 5.719A2.86 2.86 0 0 0 26 17.14z" fill="#215585"/>
    <path d="M26 6c-7.5 0-13.6 5.88-13.96 13.28L8.2 24.4c-.5.66-.02 1.6.8 1.6h3v6c0 2.2 1.8 4 4 4h2v6h14v-9.36c4.72-2.24 8-7.06 8-12.64 0-7.74-6.26-14-14-14zm6 14c0 .26-.02.52-.04.78l1.66 1.32c.16.12.2.32.1.5l-1.6 2.78c-.1.18-.32.24-.48.18l-1.98-.8c-.42.32-.86.58-1.34.78L28 27.66c-.02.2-.2.34-.4.34h-3.2c-.2 0-.36-.14-.4-.34l-.3-2.12c-.5-.2-.94-.46-1.36-.78l-1.98.8c-.18.06-.4 0-.5-.18l-1.6-2.78c-.1-.16-.06-.38.1-.5l1.68-1.32c-.02-.26-.04-.52-.04-.78s.04-.54.08-.78l-1.7-1.32c-.16-.12-.2-.32-.1-.52l1.6-2.76c.1-.18.3-.24.48-.18l2 .8c.4-.3.86-.58 1.34-.78l.3-2.12c.04-.2.2-.34.4-.34h3.2c.2 0 .36.14.4.34l.3 2.12c.48.2.92.46 1.34.78l2-.8c.18-.06.4 0 .48.18l1.6 2.76c.1.18.06.4-.1.52l-1.7 1.32c.06.24.08.5.08.78z" fill="#215585"/>
</svg>
